HIERARCHY
ROOT Hips
{
  OFFSET 5.72205e-005 65.662 3.42586
  CHANNELS 6 Xposition Yposition Zposition Zrotation Xrotation Yrotation
  JOINT Chest
  {
    OFFSET 0 8.7983 -4.7612
    CHANNELS 3 Zrotation Xrotation Yrotation
    JOINT Chest2
    {
      OFFSET 0 8.0291 0.4195
      CHANNELS 3 Zrotation Xrotation Yrotation
      JOINT Chest3
      {
        OFFSET 0 9.9351 -2.2114
        CHANNELS 3 Zrotation Xrotation Yrotation
        JOINT Neck
        {
          OFFSET 0 22.3885 -0.4656
          CHANNELS 3 Zrotation Xrotation Yrotation
          JOINT Head
          {
            OFFSET -0.0001 12.643 3.4389
            CHANNELS 3 Zrotation Xrotation Yrotation
            End Site
            {
              OFFSET 0.0001 17.6655 0.5274
            }
          }
        }
        JOINT LeftCollar
        {
          OFFSET 2.2603 21.606 7.4023
          CHANNELS 3 Zrotation Xrotation Yrotation
          JOINT LeftShoulder
          {
            OFFSET 13.5163 -1.1332 -5.0146
            CHANNELS 3 Zrotation Xrotation Yrotation
            JOINT LeftElbow
            {
              OFFSET -0.0995 -28.05 -0.2431
              CHANNELS 3 Zrotation Xrotation Yrotation
              JOINT LeftWrist
              {
                OFFSET 0.0679 -23.3996 -0.1402
                CHANNELS 3 Zrotation Xrotation Yrotation
                JOINT LeftFinger1
                {
                  OFFSET 0.7932 -9.069 2.5189
                  CHANNELS 3 Zrotation Xrotation Yrotation
                  JOINT LeftFinger11
                  {
                    OFFSET -0.8272 -3.3923 0.5977
                    CHANNELS 3 Zrotation Xrotation Yrotation
                    JOINT LeftFinger12
                    {
                      OFFSET -0.5649 -2.3158 0.4082
                      CHANNELS 3 Zrotation Xrotation Yrotation
                      End Site
                      {
                        OFFSET -0.4919 -1.6479 0.2673
                      }
                    }
                  }
                }
                JOINT LeftFinger2
                {
                  OFFSET 0.9159 -9.2044 0.2193
                  CHANNELS 3 Zrotation Xrotation Yrotation
                  JOINT LeftFinger21
                  {
                    OFFSET 0.0117 -4.1944 -0.0248
                    CHANNELS 3 Zrotation Xrotation Yrotation
                    JOINT LeftFinger22
                    {
                      OFFSET 0.0071 -2.3249 -0.0142
                      CHANNELS 3 Zrotation Xrotation Yrotation
                      End Site
                      {
                        OFFSET -0.1475 -2.0882 0.0028
                      }
                    }
                  }
                }
                JOINT LeftFinger3
                {
                  OFFSET 0.6113 -8.7231 -2.0637
                  CHANNELS 3 Zrotation Xrotation Yrotation
                  JOINT LeftFinger31
                  {
                    OFFSET -0.1927 -3.8059 -0.2383
                    CHANNELS 3 Zrotation Xrotation Yrotation
                    JOINT LeftFinger32
                    {
                      OFFSET -0.1091 -2.1688 -0.1362
                      CHANNELS 3 Zrotation Xrotation Yrotation
                      End Site
                      {
                        OFFSET -0.2358 -1.9176 -0.0906
                      }
                    }
                  }
                }
                JOINT LeftFinger4
                {
                  OFFSET -0.6151 -8.0947 -3.5641
                  CHANNELS 3 Zrotation Xrotation Yrotation
                  JOINT LeftFinger41
                  {
                    OFFSET -0.4882 -2.341 -0.6462
                    CHANNELS 3 Zrotation Xrotation Yrotation
                    JOINT LeftFinger42
                    {
                      OFFSET -0.3575 -1.7167 -0.4742
                      CHANNELS 3 Zrotation Xrotation Yrotation
                      End Site
                      {
                        OFFSET -0.4187 -1.5237 -0.3496
                      }
                    }
                  }
                }
                JOINT LeftFinger0
                {
                  OFFSET -1.42 -1.8761 1.4223
                  CHANNELS 3 Zrotation Xrotation Yrotation
                  JOINT LeftFinger01
                  {
                    OFFSET -1.1471 -3.4929 2.6334
                    CHANNELS 3 Zrotation Xrotation Yrotation
                    JOINT LeftFinger02
                    {
                      OFFSET -0.823 -2.3 1.6571
                      CHANNELS 3 Zrotation Xrotation Yrotation
                      End Site
                      {
                        OFFSET -0.5822 -1.6914 1.1582
                      }
                    }
                  }
                }
              }
            }
          }
        }
        JOINT RightCollar
        {
          OFFSET -2.2603 21.606 7.4023
          CHANNELS 3 Zrotation Xrotation Yrotation
          JOINT RightShoulder
          {
            OFFSET -13.5187 -1.1334 -5.0155
            CHANNELS 3 Zrotation Xrotation Yrotation
            JOINT RightElbow
            {
              OFFSET 0.0994 -28.0499 -0.2431
              CHANNELS 3 Zrotation Xrotation Yrotation
              JOINT RightWrist
              {
                OFFSET -0.0679 -23.3996 -0.1402
                CHANNELS 3 Zrotation Xrotation Yrotation
                JOINT RightFinger1
                {
                  OFFSET -0.7932 -9.0691 2.5189
                  CHANNELS 3 Zrotation Xrotation Yrotation
                  JOINT RightFinger11
                  {
                    OFFSET 0.8272 -3.3923 0.5977
                    CHANNELS 3 Zrotation Xrotation Yrotation
                    JOINT RightFinger12
                    {
                      OFFSET 0.565 -2.3158 0.4082
                      CHANNELS 3 Zrotation Xrotation Yrotation
                      End Site
                      {
                        OFFSET 0.4919 -1.6479 0.2673
                      }
                    }
                  }
                }
                JOINT RightFinger2
                {
                  OFFSET -0.916 -9.2044 0.2193
                  CHANNELS 3 Zrotation Xrotation Yrotation
                  JOINT RightFinger21
                  {
                    OFFSET -0.0117 -4.1944 -0.0248
                    CHANNELS 3 Zrotation Xrotation Yrotation
                    JOINT RightFinger22
                    {
                      OFFSET -0.0071 -2.3249 -0.0142
                      CHANNELS 3 Zrotation Xrotation Yrotation
                      End Site
                      {
                        OFFSET 0.1475 -2.0882 0.0028
                      }
                    }
                  }
                }
                JOINT RightFinger3
                {
                  OFFSET -0.6113 -8.7231 -2.0637
                  CHANNELS 3 Zrotation Xrotation Yrotation
                  JOINT RightFinger31
                  {
                    OFFSET 0.1927 -3.8059 -0.2383
                    CHANNELS 3 Zrotation Xrotation Yrotation
                    JOINT RightFinger32
                    {
                      OFFSET 0.1091 -2.1688 -0.1362
                      CHANNELS 3 Zrotation Xrotation Yrotation
                      End Site
                      {
                        OFFSET 0.2358 -1.9176 -0.0906
                      }
                    }
                  }
                }
                JOINT RightFinger4
                {
                  OFFSET 0.6151 -8.0947 -3.564
                  CHANNELS 3 Zrotation Xrotation Yrotation
                  JOINT RightFinger41
                  {
                    OFFSET 0.4882 -2.341 -0.6462
                    CHANNELS 3 Zrotation Xrotation Yrotation
                    JOINT RightFinger42
                    {
                      OFFSET 0.3574 -1.7166 -0.4742
                      CHANNELS 3 Zrotation Xrotation Yrotation
                      End Site
                      {
                        OFFSET 0.4187 -1.5237 -0.3496
                      }
                    }
                  }
                }
                JOINT RightFinger0
                {
                  OFFSET 1.4199 -1.8761 1.4221
                  CHANNELS 3 Zrotation Xrotation Yrotation
                  JOINT RightFinger01
                  {
                    OFFSET 1.1472 -3.4929 2.6336
                    CHANNELS 3 Zrotation Xrotation Yrotation
                    JOINT RightFinger02
                    {
                      OFFSET 0.8229 -2.3 1.6571
                      CHANNELS 3 Zrotation Xrotation Yrotation
                      End Site
                      {
                        OFFSET 0.5822 -1.6914 1.1582
                      }
                    }
                  }
                }
              }
            }
          }
        }
      }
    }
  }
  JOINT RightHip
  {
    OFFSET -9.412 3.9771 -0.7758
    CHANNELS 3 Zrotation Xrotation Yrotation
    JOINT RightKnee
    {
      OFFSET -0.7531 -40.938 0
      CHANNELS 3 Zrotation Xrotation Yrotation
      JOINT RightAnkle
      {
        OFFSET 0 -40.1986 0
        CHANNELS 3 Zrotation Xrotation Yrotation
        JOINT RightToe
        {
          OFFSET 0 -4.4182 9.239
          CHANNELS 3 Zrotation Xrotation Yrotation
          End Site
          {
            OFFSET 0 0 6.1981
          }
        }
      }
    }
  }
  JOINT LeftHip
  {
    OFFSET 9.4119 3.9773 -0.7758
    CHANNELS 3 Zrotation Xrotation Yrotation
    JOINT LeftKnee
    {
      OFFSET 0.7532 -40.9383 0
      CHANNELS 3 Zrotation Xrotation Yrotation
      JOINT LeftAnkle
      {
        OFFSET 0 -40.1986 0
        CHANNELS 3 Zrotation Xrotation Yrotation
        JOINT LeftToe
        {
          OFFSET 0 -4.4182 9.239
          CHANNELS 3 Zrotation Xrotation Yrotation
          End Site
          {
            OFFSET 0 0 6.1981
          }
        }
      }
    }
  }
}
MOTION
Frames:	5
Frame Time:	0.0333333
5.72205e-005 65.662 3.42586 0 0 -0 0 0 -0 0 0 -0 0 0 -0 0 0 -0 0 0 -0 0 0 -12.5014 88.1196 14.2451 10.6914 -0.00160068 -0.00239207 0.000740045 -8.4365e-005 7.00714e-005 -9.52055e-007 9.93923e-017 -1.98785e-016 -1.59028e-015 9.93923e-017 -5.96354e-016 -1.59028e-015 -9.93923e-017 -5.96354e-016 -1.59028e-015 9.93923e-017 -1.98785e-016 -1.59028e-015 -0.0128176 0.00232552 8.52707e-005 9.93923e-017 5.96354e-016 -0 9.93923e-017 -1.98785e-016 -1.59028e-015 -0.0160551 0.00299681 0.000857156 -2.48481e-016 0 3.18055e-015 9.93923e-017 -1.98785e-016 -1.59028e-015 -0.0125865 0.0031206 0.00282719 0 1.98785e-016 -0 9.93923e-017 -1.98785e-016 -1.59028e-015 9.93923e-017 -5.96354e-016 -1.59028e-015 -9.93923e-017 -5.96354e-016 -1.59028e-015 -0.865644 0.16582 7.03859 -88.0329 10.2057 -10.5567 0.0015593 -0.00248883 -0.000788628 7.87605e-005 4.10553e-005 1.24965e-005 -3.97569e-016 -7.95139e-016 3.18055e-015 -1.98785e-016 -3.97569e-016 3.18055e-015 -1.98785e-016 0 3.18055e-015 -3.97569e-016 -7.95139e-016 3.18055e-015 0.0129473 0.00231697 -8.70038e-005 9.93923e-017 -7.95139e-016 1.59028e-015 -3.97569e-016 -7.95139e-016 3.18055e-015 0.0163314 0.00303369 -0.000872333 3.97569e-016 7.95139e-016 -3.18055e-015 -3.97569e-016 -7.95139e-016 3.18055e-015 0.0145763 0.00367772 -0.00326275 9.93923e-017 -3.97569e-016 -0 -3.97569e-016 -7.95139e-016 3.18055e-015 -1.98785e-016 -3.97569e-016 3.18055e-015 -1.98785e-016 0 3.18055e-015 3.42482 1.32465 -0.0626183 0.000117508 0.717283 0.000978199 -3.4257 -2.04197 -0.0604716 6.47761e-025 0 -0 -3.42483 1.34017 0.0627307 -0.000193936 0.682302 -0.0013703 3.42574 -2.02253 0.0595886 -8.45714e-024 0 -7.40531e-025 
-0.164393 33.8044 9.88174 -0 -86.0149 -0 -0 -1.40084 -0 -0 -2.80166 -0 -0 -2.80165 -0 16.9982 -0.00246797 -15.0012 -21.2395 8.39633 11.247 20.9968 0.136463 -12.5035 15.8676 12.1893 -25.5971 -14.2379 -51.5265 -10.6835 9.86488 -6.92473 3.27961 1.21645e-006 -1.1767e-005 -5.556e-006 3.94271e-007 2.04161e-006 -3.46144e-006 -3.18055e-015 -3.18055e-015 3.18055e-015 1.21645e-006 -1.1767e-005 -5.556e-006 -0.0127734 0.00232096 8.80034e-005 3.18055e-015 -3.18055e-015 -7.95139e-015 1.21645e-006 -1.1767e-005 -5.556e-006 -0.0160776 0.0029962 0.000853729 6.02865e-006 -8.496e-006 -5.31423e-006 1.21645e-006 -1.1767e-005 -5.556e-006 -0.0125593 0.00311802 0.00283138 3.52076e-007 -5.22393e-006 -5.83695e-006 1.21645e-006 -1.1767e-005 -5.556e-006 3.94271e-007 2.04161e-006 -3.46144e-006 -3.18055e-015 -3.18055e-015 3.18055e-015 -21.3395 -13.1149 4.90069 -124.348 -5.10323 -94.6319 161.767 -54.9537 145.136 -1.09689 -4.31654 -2.99746 -6.74092e-008 4.37845e-007 -8.35138e-007 -1.14301e-014 -1.59028e-015 -0 -6.38112e-006 -4.64128e-007 4.78125e-007 -6.74092e-008 4.37845e-007 -8.35138e-007 0.0129524 0.00231614 -8.66514e-005 -4.22023e-007 1.64047e-006 4.33802e-008 -6.74092e-008 4.37845e-007 -8.35138e-007 0.0163109 0.00303029 -0.000871556 1.39149e-015 1.72353e-006 -0 -6.74092e-008 4.37845e-007 -8.35138e-007 0.0145434 0.00367087 -0.00325404 6.7524e-006 1.24835e-006 -6.93965e-007 -6.74092e-008 4.37845e-007 -8.35138e-007 -1.14301e-014 -1.59028e-015 -0 -6.38112e-006 -4.64128e-007 4.78125e-007 -3.95068 -38.2092 2.61684 0.146388 87.6516 -20.529 -1.00797 34.4217 -0.486903 -2.98177e-015 -4.59058e-007 -0 -1.68491 2.74314 11.3926 -1.28633 0.790721 6.12319 -5.48673 5.98157 8.22257 4.92057e-007 -3.20641e-007 1.70856e-006 
-0.164393 33.8044 9.88174 -0 -86.0149 -0 -0 -1.40084 -0 -0 -2.80166 -0 -0 -2.80165 -0 16.9983 -0.00246269 -15.0012 -21.2395 8.39633 11.247 20.9968 0.136463 -12.5035 15.8677 12.1893 -25.5971 -14.2381 -51.5265 -10.6835 9.86488 -6.92478 3.2796 -3.46861e-006 4.83255e-006 1.3291e-006 2.56101e-006 -2.59221e-006 -3.98552e-006 2.60372e-006 3.59228e-006 -1.61003e-006 -3.46861e-006 4.83255e-006 1.3291e-006 -0.0128199 0.00232626 7.65817e-005 -4.41794e-006 -1.03831e-006 -3.70301e-006 -3.46861e-006 4.83255e-006 1.3291e-006 -0.0160015 0.00298333 0.000850118 3.18055e-015 0 4.77083e-015 -3.46861e-006 4.83255e-006 1.3291e-006 -0.0126384 0.00312323 0.00283763 9.54166e-015 -6.36111e-015 -0 -3.46861e-006 4.83255e-006 1.3291e-006 2.56101e-006 -2.59221e-006 -3.98552e-006 2.60372e-006 3.59228e-006 -1.61003e-006 -21.3395 -13.1149 4.90069 -124.348 -5.10323 -94.6319 161.767 -54.9537 145.136 -1.09688 -4.31654 -2.99746 -6.74092e-008 4.21957e-007 -8.35138e-007 -1.88845e-015 4.34365e-007 1.59028e-015 -8.94531e-016 7.95139e-016 3.18055e-015 -6.74092e-008 4.21957e-007 -8.35138e-007 0.0129177 0.00231345 -8.52533e-005 1.59028e-015 -1.59028e-015 1.59028e-015 -6.74092e-008 4.21957e-007 -8.35138e-007 0.0163381 0.00303661 -0.000872664 9.93923e-017 0 -0 -6.74092e-008 4.21957e-007 -8.35138e-007 0.0145503 0.00367186 -0.00325373 9.93923e-016 -7.95139e-016 -3.18055e-015 -6.74092e-008 4.21957e-007 -8.35138e-007 -1.88845e-015 4.34365e-007 1.59028e-015 -8.94531e-016 7.95139e-016 3.18055e-015 -3.95068 -38.2092 2.61684 0.146585 87.6516 -20.5292 -1.00797 34.4217 -0.486909 3.97569e-016 -2.92576e-010 -0 -1.68491 2.74314 11.3926 -1.28633 0.790721 6.12319 -5.48673 5.98157 8.22257 4.92057e-007 -3.20641e-007 1.70856e-006 
-0.164393 33.8044 9.88174 -0 -86.0149 -0 -0 -1.40084 -0 -0 -2.80166 -0 -0 -2.80165 -0 16.9982 -0.00246853 -15.0012 -21.2395 8.39633 11.247 20.9968 0.136463 -12.5035 15.8677 12.1893 -25.5971 -14.238 -51.5265 -10.6835 9.86486 -6.92473 3.27958 3.18056e-015 -2.95587e-006 2.06736e-014 3.18055e-015 6.36111e-015 1.59028e-014 3.18055e-015 0 9.54166e-015 3.18056e-015 -2.95587e-006 2.06736e-014 -0.0127744 0.00231051 8.05985e-005 3.18055e-015 0 -4.77083e-015 3.18056e-015 -2.95587e-006 2.06736e-014 -0.0159926 0.00298328 0.000862266 1.76556e-031 -3.18055e-015 3.18055e-015 3.18056e-015 -2.95587e-006 2.06736e-014 -0.0125208 0.00309766 0.00280365 6.36111e-015 3.18055e-015 7.95139e-015 3.18056e-015 -2.95587e-006 2.06736e-014 3.18055e-015 6.36111e-015 1.59028e-014 3.18055e-015 0 9.54166e-015 -21.3395 -13.1149 4.90069 -124.348 -5.10322 -94.6319 161.767 -54.9537 145.136 -1.09689 -4.31654 -2.99746 1.32007e-005 1.61995e-006 -3.37339e-007 -5.05864e-007 -6.86243e-007 -1.45405e-006 -3.77691e-015 0 -4.77083e-015 1.32007e-005 1.61995e-006 -3.37339e-007 0.0129307 0.0023147 -8.80931e-005 1.49089e-015 -1.59028e-015 -0 1.32007e-005 1.61995e-006 -3.37339e-007 0.016338 0.00303746 -0.000873495 5.96354e-016 7.95139e-016 -0 1.32007e-005 1.61995e-006 -3.37339e-007 0.0145501 0.00367355 -0.00325623 4.3757e-007 -5.00142e-007 6.19126e-007 1.32007e-005 1.61995e-006 -3.37339e-007 -5.05864e-007 -6.86243e-007 -1.45405e-006 -3.77691e-015 0 -4.77083e-015 -3.95068 -38.2092 2.61684 0.146562 87.6516 -20.5291 -1.00797 34.4216 -0.486903 -1.68699e-006 -2.64154e-007 2.86488e-008 -1.67494 2.67948 11.3919 -1.28346 0.906396 6.12366 -5.49189 5.93068 8.2188 1.60105e-007 -3.59365e-007 3.20248e-006 
-0.164393 33.8044 9.88174 -0 -86.0149 -0 -0 -1.40084 -0 -0 -2.80166 -0 -0 -2.80165 -0 16.9982 -0.00246797 -15.0012 -21.2395 8.39633 11.247 20.9968 0.136463 -12.5035 15.8676 12.1893 -25.5971 -14.2379 -51.5265 -10.6835 9.86488 -6.92473 3.27961 1.21645e-006 -1.1767e-005 -5.556e-006 3.94271e-007 2.04161e-006 -3.46144e-006 -3.18055e-015 -3.18055e-015 3.18055e-015 1.21645e-006 -1.1767e-005 -5.556e-006 -0.0127734 0.00232096 8.80034e-005 3.18055e-015 -3.18055e-015 -7.95139e-015 1.21645e-006 -1.1767e-005 -5.556e-006 -0.0160776 0.0029962 0.000853729 6.02865e-006 -8.496e-006 -5.31423e-006 1.21645e-006 -1.1767e-005 -5.556e-006 -0.0125593 0.00311802 0.00283138 3.52076e-007 -5.22393e-006 -5.83695e-006 1.21645e-006 -1.1767e-005 -5.556e-006 3.94271e-007 2.04161e-006 -3.46144e-006 -3.18055e-015 -3.18055e-015 3.18055e-015 -21.3395 -13.1149 4.90069 -124.348 -5.10323 -94.6319 161.767 -54.9537 145.136 -1.09689 -4.31654 -2.99746 -6.74092e-008 4.37845e-007 -8.35138e-007 -1.14301e-014 -1.59028e-015 -0 -6.38112e-006 -4.64128e-007 4.78125e-007 -6.74092e-008 4.37845e-007 -8.35138e-007 0.0129524 0.00231614 -8.66514e-005 -4.22023e-007 1.64047e-006 4.33802e-008 -6.74092e-008 4.37845e-007 -8.35138e-007 0.0163109 0.00303029 -0.000871556 1.39149e-015 1.72353e-006 -0 -6.74092e-008 4.37845e-007 -8.35138e-007 0.0145434 0.00367087 -0.00325404 6.7524e-006 1.24835e-006 -6.93965e-007 -6.74092e-008 4.37845e-007 -8.35138e-007 -1.14301e-014 -1.59028e-015 -0 -6.38112e-006 -4.64128e-007 4.78125e-007 -3.95071 -38.2092 2.61682 0.146514 87.6516 -20.5291 -1.00797 34.4216 -0.486903 1.19271e-015 7.95139e-016 3.18055e-015 -1.68491 2.74314 11.3926 -1.28633 0.790721 6.12319 -5.48673 5.98157 8.22257 4.92057e-007 -3.20641e-007 1.70856e-006 
